<mxfile host="app.diagrams.net" agent="Mozilla/5.0 (Windows NT 10.0; Win64; x64) AppleWebKit/537.36 (KHTML, like Gecko) Chrome/140.0.0.0 Safari/537.36" version="28.2.1">
  <diagram id="cSlxbGmUYYROT3KufzOf" name="Page-2">
    <mxGraphModel dx="872" dy="534" grid="1" gridSize="10" guides="1" tooltips="1" connect="1" arrows="1" fold="1" page="1" pageScale="1" pageWidth="850" pageHeight="1100" math="0" shadow="0">
      <root>
        <mxCell id="0" />
        <mxCell id="1" parent="0" />
        <mxCell id="x7ecTidKIlWoN0leOe8E-2" value="" style="sketch=0;outlineConnect=0;dashed=0;verticalLabelPosition=bottom;verticalAlign=top;align=center;html=1;fontSize=12;fontStyle=0;aspect=fixed;pointerEvents=1;shape=mxgraph.aws4.container_1;fillColor=#000000;fontColor=#333333;strokeColor=#000000;" parent="1" vertex="1">
          <mxGeometry x="357.01" y="384" width="102.03157894736842" height="65.89263157894736" as="geometry" />
        </mxCell>
        <mxCell id="x7ecTidKIlWoN0leOe8E-3" value="&lt;div style=&quot;&quot;&gt;&lt;span style=&quot;background-color: transparent; color: light-dark(rgb(0, 0, 0), rgb(255, 255, 255)); font-size: 14px;&quot;&gt;&lt;font face=&quot;Verdana&quot;&gt;.NET&lt;/font&gt;&lt;/span&gt;&lt;/div&gt;" style="text;whiteSpace=wrap;html=1;align=center;" parent="1" vertex="1">
          <mxGeometry x="357.01" y="449.89" width="100" height="24.11" as="geometry" />
        </mxCell>
        <mxCell id="x7ecTidKIlWoN0leOe8E-7" value="" style="sketch=0;outlineConnect=0;dashed=0;verticalLabelPosition=bottom;verticalAlign=top;align=center;html=1;fontSize=12;fontStyle=0;aspect=fixed;pointerEvents=1;shape=mxgraph.aws4.container_1;fillColor=#000000;fontColor=#333333;strokeColor=#000000;" parent="1" vertex="1">
          <mxGeometry x="140" y="384" width="102.03157894736842" height="65.89263157894736" as="geometry" />
        </mxCell>
        <mxCell id="x7ecTidKIlWoN0leOe8E-8" value="&lt;div style=&quot;&quot;&gt;&lt;span style=&quot;background-color: transparent; color: light-dark(rgb(0, 0, 0), rgb(255, 255, 255)); font-size: 14px;&quot;&gt;&lt;font face=&quot;Verdana&quot;&gt;React + Vite&lt;/font&gt;&lt;/span&gt;&lt;/div&gt;" style="text;whiteSpace=wrap;html=1;align=center;" parent="1" vertex="1">
          <mxGeometry x="140" y="449.89" width="100" height="40" as="geometry" />
        </mxCell>
        <mxCell id="x7ecTidKIlWoN0leOe8E-9" value="" style="endArrow=classic;html=1;rounded=0;strokeWidth=3;" parent="1" edge="1">
          <mxGeometry width="50" height="50" relative="1" as="geometry">
            <mxPoint x="260" y="416.36" as="sourcePoint" />
            <mxPoint x="345.76630031690377" y="416.36" as="targetPoint" />
          </mxGeometry>
        </mxCell>
        <mxCell id="x7ecTidKIlWoN0leOe8E-10" value="" style="sketch=0;outlineConnect=0;dashed=0;verticalLabelPosition=bottom;verticalAlign=top;align=center;html=1;fontSize=12;fontStyle=0;aspect=fixed;pointerEvents=1;shape=mxgraph.aws4.container_1;fillColor=#000000;fontColor=#333333;strokeColor=#000000;" parent="1" vertex="1">
          <mxGeometry x="583.98" y="260" width="102.03157894736842" height="65.89263157894736" as="geometry" />
        </mxCell>
        <mxCell id="x7ecTidKIlWoN0leOe8E-11" value="&lt;div style=&quot;&quot;&gt;&lt;font face=&quot;Verdana&quot;&gt;&lt;span style=&quot;font-size: 14px;&quot;&gt;R&amp;nbsp;&lt;/span&gt;&lt;/font&gt;&lt;span style=&quot;font-size: 14px; font-family: Verdana; background-color: transparent; color: light-dark(rgb(0, 0, 0), rgb(255, 255, 255));&quot;&gt;+&amp;nbsp;&lt;/span&gt;&lt;span style=&quot;font-size: 14px; font-family: Verdana; background-color: transparent; color: light-dark(rgb(0, 0, 0), rgb(255, 255, 255));&quot;&gt;Bioconductor&lt;/span&gt;&lt;/div&gt;" style="text;whiteSpace=wrap;html=1;align=center;" parent="1" vertex="1">
          <mxGeometry x="570" y="325.89" width="130" height="40" as="geometry" />
        </mxCell>
        <mxCell id="x7ecTidKIlWoN0leOe8E-14" value="" style="endArrow=classic;html=1;rounded=0;strokeWidth=3;" parent="1" edge="1">
          <mxGeometry width="50" height="50" relative="1" as="geometry">
            <mxPoint x="470" y="400" as="sourcePoint" />
            <mxPoint x="560" y="320" as="targetPoint" />
          </mxGeometry>
        </mxCell>
        <mxCell id="x7ecTidKIlWoN0leOe8E-15" value="" style="sketch=0;outlineConnect=0;dashed=0;verticalLabelPosition=bottom;verticalAlign=top;align=center;html=1;fontSize=12;fontStyle=0;aspect=fixed;pointerEvents=1;shape=mxgraph.aws4.container_1;fillColor=#000000;fontColor=#333333;strokeColor=#000000;" parent="1" vertex="1">
          <mxGeometry x="583.98" y="384" width="102.03157894736842" height="65.89263157894736" as="geometry" />
        </mxCell>
        <mxCell id="x7ecTidKIlWoN0leOe8E-16" value="&lt;div style=&quot;&quot;&gt;&lt;font face=&quot;Verdana&quot;&gt;&lt;span style=&quot;font-size: 14px;&quot;&gt;R&amp;nbsp;&lt;/span&gt;&lt;/font&gt;&lt;span style=&quot;font-size: 14px; font-family: Verdana; background-color: transparent; color: light-dark(rgb(0, 0, 0), rgb(255, 255, 255));&quot;&gt;+&amp;nbsp;&lt;/span&gt;&lt;span style=&quot;font-size: 14px; font-family: Verdana; background-color: transparent; color: light-dark(rgb(0, 0, 0), rgb(255, 255, 255));&quot;&gt;BLAST&lt;/span&gt;&lt;/div&gt;" style="text;whiteSpace=wrap;html=1;align=center;" parent="1" vertex="1">
          <mxGeometry x="570" y="449.89" width="130" height="40" as="geometry" />
        </mxCell>
        <mxCell id="x7ecTidKIlWoN0leOe8E-17" value="" style="endArrow=classic;html=1;rounded=0;strokeWidth=3;" parent="1" edge="1">
          <mxGeometry width="50" height="50" relative="1" as="geometry">
            <mxPoint x="470" y="417" as="sourcePoint" />
            <mxPoint x="560" y="417" as="targetPoint" />
          </mxGeometry>
        </mxCell>
        <mxCell id="O3-pwxNwTQay8qMMsT4k-2" value="&lt;ul&gt;&lt;li&gt;&lt;span style=&quot;background-color: transparent; color: light-dark(rgb(0, 0, 0), rgb(255, 255, 255));&quot;&gt;&lt;font face=&quot;Verdana&quot;&gt;base: bioconductor&lt;/font&gt;&lt;/span&gt;&lt;/li&gt;&lt;li&gt;&lt;span style=&quot;background-color: transparent; color: light-dark(rgb(0, 0, 0), rgb(255, 255, 255));&quot;&gt;&lt;font face=&quot;Verdana&quot;&gt;plumber&lt;/font&gt;&lt;/span&gt;&lt;/li&gt;&lt;/ul&gt;" style="text;whiteSpace=wrap;html=1;align=left;fontSize=10;" vertex="1" parent="1">
          <mxGeometry x="690" y="257.95" width="150" height="62.05" as="geometry" />
        </mxCell>
        <mxCell id="O3-pwxNwTQay8qMMsT4k-3" value="&lt;ul&gt;&lt;li&gt;&lt;span style=&quot;background-color: transparent; color: light-dark(rgb(0, 0, 0), rgb(255, 255, 255));&quot;&gt;&lt;font face=&quot;Verdana&quot;&gt;base: r-base&lt;/font&gt;&lt;/span&gt;&lt;/li&gt;&lt;li&gt;&lt;span style=&quot;background-color: transparent; color: light-dark(rgb(0, 0, 0), rgb(255, 255, 255));&quot;&gt;&lt;font face=&quot;Verdana&quot;&gt;blast+&lt;/font&gt;&lt;/span&gt;&lt;/li&gt;&lt;li&gt;&lt;span style=&quot;background-color: transparent; color: light-dark(rgb(0, 0, 0), rgb(255, 255, 255));&quot;&gt;&lt;font face=&quot;Verdana&quot;&gt;plumber&lt;/font&gt;&lt;/span&gt;&lt;/li&gt;&lt;/ul&gt;" style="text;whiteSpace=wrap;html=1;align=left;fontSize=10;" vertex="1" parent="1">
          <mxGeometry x="690" y="387.84" width="150" height="62.05" as="geometry" />
        </mxCell>
        <mxCell id="O3-pwxNwTQay8qMMsT4k-4" value="" style="points=[];aspect=fixed;html=1;align=center;shadow=0;dashed=0;fillColor=#000000;strokeColor=#000000;shape=mxgraph.alibaba_cloud.webplus_web_app_service;fontColor=#000000;" vertex="1" parent="1">
          <mxGeometry x="567.5500000000001" y="503" width="54.900000000000006" height="54.900000000000006" as="geometry" />
        </mxCell>
        <mxCell id="O3-pwxNwTQay8qMMsT4k-5" value="" style="endArrow=classic;html=1;rounded=0;strokeWidth=3;" edge="1" parent="1">
          <mxGeometry width="50" height="50" relative="1" as="geometry">
            <mxPoint x="470" y="430" as="sourcePoint" />
            <mxPoint x="550" y="520" as="targetPoint" />
          </mxGeometry>
        </mxCell>
        <mxCell id="O3-pwxNwTQay8qMMsT4k-6" value="&lt;div style=&quot;&quot;&gt;&lt;font face=&quot;Verdana&quot;&gt;&lt;span style=&quot;font-size: 14px;&quot;&gt;ensembl&lt;/span&gt;&lt;/font&gt;&lt;/div&gt;&lt;div style=&quot;&quot;&gt;&lt;font face=&quot;Verdana&quot;&gt;&lt;span style=&quot;font-size: 14px;&quot;&gt;ncbi&lt;/span&gt;&lt;/font&gt;&lt;/div&gt;" style="text;whiteSpace=wrap;html=1;align=center;" vertex="1" parent="1">
          <mxGeometry x="530" y="557.9" width="130" height="40" as="geometry" />
        </mxCell>
        <mxCell id="O3-pwxNwTQay8qMMsT4k-16" value="" style="group" vertex="1" connectable="0" parent="1">
          <mxGeometry x="160" y="40" width="514.02" height="104.84" as="geometry" />
        </mxCell>
        <mxCell id="NSuvMrRVn5Ygm7CTUUxd-28" value="" style="shape=image;html=1;verticalAlign=middle;verticalLabelPosition=bottom;labelBackgroundColor=#ffffff;imageAspect=0;aspect=fixed;image=https://icons.diagrams.net/icon-cache1/Ionicons_Fill_Vol_2-2187/logo-docker-1464.svg;fillColor=#3333FF;rounded=0;shadow=0;glass=0;strokeColor=light-dark(#000000,#A8A8FF);strokeWidth=3;align=center;fontFamily=Helvetica;fontSize=12;fontColor=default;" parent="O3-pwxNwTQay8qMMsT4k-16" vertex="1">
          <mxGeometry x="198.94496325264652" y="3.7894736842105274" width="82.10526315789473" height="82.10526315789473" as="geometry" />
        </mxCell>
        <mxCell id="NSuvMrRVn5Ygm7CTUUxd-29" value="" style="group" parent="O3-pwxNwTQay8qMMsT4k-16" vertex="1" connectable="0">
          <mxGeometry width="78.61910862382847" height="89.68421052631578" as="geometry" />
        </mxCell>
        <mxCell id="NSuvMrRVn5Ygm7CTUUxd-18" value="" style="shape=note;whiteSpace=wrap;html=1;backgroundOutline=1;darkOpacity=0.05;rounded=0;shadow=0;glass=0;strokeColor=light-dark(#000000,#A8A8FF);strokeWidth=3;align=center;verticalAlign=middle;fontFamily=Helvetica;fontSize=12;fontColor=default;fillColor=default;size=22;" parent="NSuvMrRVn5Ygm7CTUUxd-29" vertex="1">
          <mxGeometry x="14.29" width="64.32472523767784" height="75.78947368421052" as="geometry" />
        </mxCell>
        <mxCell id="NSuvMrRVn5Ygm7CTUUxd-3" value="" style="shape=image;html=1;verticalAlign=middle;verticalLabelPosition=bottom;labelBackgroundColor=#ffffff;imageAspect=0;aspect=fixed;image=https://icons.diagrams.net/icon-cache1/Ionicons_Fill_Vol_2-2187/logo-docker-1464.svg;fillColor=#3333FF;rounded=0;shadow=0;glass=0;strokeColor=light-dark(#000000,#A8A8FF);strokeWidth=3;align=center;fontFamily=Helvetica;fontSize=12;fontColor=default;" parent="NSuvMrRVn5Ygm7CTUUxd-29" vertex="1">
          <mxGeometry x="24.29606837030544" y="25.263157894736842" width="39.1578947368421" height="39.1578947368421" as="geometry" />
        </mxCell>
        <mxCell id="NSuvMrRVn5Ygm7CTUUxd-32" value="" style="sketch=0;outlineConnect=0;dashed=0;verticalLabelPosition=bottom;verticalAlign=top;align=center;html=1;fontSize=12;fontStyle=0;aspect=fixed;pointerEvents=1;shape=mxgraph.aws4.container_1;fillColor=#000000;fontColor=#333333;strokeColor=#000000;" parent="O3-pwxNwTQay8qMMsT4k-16" vertex="1">
          <mxGeometry x="399.9971181983683" y="11.898947368420998" width="102.03157894736842" height="65.89263157894736" as="geometry" />
        </mxCell>
        <mxCell id="NSuvMrRVn5Ygm7CTUUxd-39" value="" style="endArrow=classic;html=1;rounded=0;strokeWidth=3;" parent="O3-pwxNwTQay8qMMsT4k-16" edge="1">
          <mxGeometry width="50" height="50" relative="1" as="geometry">
            <mxPoint x="100.06068370305445" y="44.526315789473685" as="sourcePoint" />
            <mxPoint x="185.82698401995822" y="44.526315789473685" as="targetPoint" />
          </mxGeometry>
        </mxCell>
        <mxCell id="NSuvMrRVn5Ygm7CTUUxd-40" value="" style="endArrow=classic;html=1;rounded=0;strokeWidth=3;" parent="O3-pwxNwTQay8qMMsT4k-16" edge="1">
          <mxGeometry width="50" height="50" relative="1" as="geometry">
            <mxPoint x="300.24643449531385" y="44.25631578947369" as="sourcePoint" />
            <mxPoint x="386.0127348122177" y="44.25631578947369" as="targetPoint" />
          </mxGeometry>
        </mxCell>
        <mxCell id="NSuvMrRVn5Ygm7CTUUxd-41" value="Dockerfile" style="text;html=1;align=center;verticalAlign=middle;whiteSpace=wrap;rounded=0;fontFamily=Verdana;fontSize=14;" parent="O3-pwxNwTQay8qMMsT4k-16" vertex="1">
          <mxGeometry x="8.009999999999991" y="85.89000000000001" width="80" height="18.95" as="geometry" />
        </mxCell>
        <mxCell id="NSuvMrRVn5Ygm7CTUUxd-42" value="Docker Image" style="text;html=1;align=center;verticalAlign=middle;whiteSpace=wrap;rounded=0;fontFamily=Verdana;fontSize=14;" parent="O3-pwxNwTQay8qMMsT4k-16" vertex="1">
          <mxGeometry x="178.01" y="85.89000000000001" width="120" height="18.95" as="geometry" />
        </mxCell>
        <mxCell id="NSuvMrRVn5Ygm7CTUUxd-43" value="Docker Container" style="text;html=1;align=center;verticalAlign=middle;whiteSpace=wrap;rounded=0;fontFamily=Verdana;fontSize=14;" parent="O3-pwxNwTQay8qMMsT4k-16" vertex="1">
          <mxGeometry x="384.02" y="85.89000000000001" width="130" height="18.95" as="geometry" />
        </mxCell>
        <mxCell id="O3-pwxNwTQay8qMMsT4k-17" value="" style="group" vertex="1" connectable="0" parent="1">
          <mxGeometry x="130" y="240" width="120" height="118.94999999999999" as="geometry" />
        </mxCell>
        <mxCell id="O3-pwxNwTQay8qMMsT4k-7" value="" style="group" vertex="1" connectable="0" parent="O3-pwxNwTQay8qMMsT4k-17">
          <mxGeometry x="20.689999999999998" width="78.61910862382847" height="89.68421052631578" as="geometry" />
        </mxCell>
        <mxCell id="O3-pwxNwTQay8qMMsT4k-8" value="" style="rounded=0;whiteSpace=wrap;html=1;strokeColor=light-dark(#000000,#A8A8FF);fillColor=default;strokeWidth=3;perimeterSpacing=0;shadow=0;glass=0;" vertex="1" parent="O3-pwxNwTQay8qMMsT4k-7">
          <mxGeometry x="14.294383386150631" y="12.631578947368421" width="64.32472523767784" height="77.05263157894737" as="geometry" />
        </mxCell>
        <mxCell id="O3-pwxNwTQay8qMMsT4k-9" value="" style="rounded=0;whiteSpace=wrap;html=1;strokeColor=light-dark(#000000,#A8A8FF);fillColor=default;strokeWidth=3;perimeterSpacing=0;shadow=0;glass=0;" vertex="1" parent="O3-pwxNwTQay8qMMsT4k-7">
          <mxGeometry x="7.147191693075316" y="6.315789473684211" width="64.32472523767784" height="77.05263157894737" as="geometry" />
        </mxCell>
        <mxCell id="O3-pwxNwTQay8qMMsT4k-10" value="" style="shape=note;whiteSpace=wrap;html=1;backgroundOutline=1;darkOpacity=0.05;rounded=0;shadow=0;glass=0;strokeColor=light-dark(#000000,#A8A8FF);strokeWidth=3;align=center;verticalAlign=middle;fontFamily=Helvetica;fontSize=12;fontColor=default;fillColor=default;size=22;" vertex="1" parent="O3-pwxNwTQay8qMMsT4k-7">
          <mxGeometry width="64.32472523767784" height="75.78947368421052" as="geometry" />
        </mxCell>
        <mxCell id="O3-pwxNwTQay8qMMsT4k-11" value="" style="shape=image;html=1;verticalAlign=middle;verticalLabelPosition=bottom;labelBackgroundColor=#ffffff;imageAspect=0;aspect=fixed;image=https://icons.diagrams.net/icon-cache1/Ionicons_Fill_Vol_2-2187/logo-docker-1464.svg;fillColor=#3333FF;rounded=0;shadow=0;glass=0;strokeColor=light-dark(#000000,#A8A8FF);strokeWidth=3;align=center;fontFamily=Helvetica;fontSize=12;fontColor=default;" vertex="1" parent="O3-pwxNwTQay8qMMsT4k-7">
          <mxGeometry x="7.15" y="12.629999999999999" width="24.42" height="24.42" as="geometry" />
        </mxCell>
        <mxCell id="O3-pwxNwTQay8qMMsT4k-13" value="" style="shape=image;html=1;verticalAlign=middle;verticalLabelPosition=bottom;labelBackgroundColor=#ffffff;imageAspect=0;aspect=fixed;image=https://icons.diagrams.net/icon-cache1/Ionicons_Fill_Vol_2-2187/logo-docker-1464.svg;fillColor=#3333FF;rounded=0;shadow=0;glass=0;strokeColor=light-dark(#000000,#A8A8FF);strokeWidth=3;align=center;fontFamily=Helvetica;fontSize=12;fontColor=default;" vertex="1" parent="O3-pwxNwTQay8qMMsT4k-7">
          <mxGeometry x="7.149999999999999" y="38.95000000000001" width="24.42" height="24.42" as="geometry" />
        </mxCell>
        <mxCell id="O3-pwxNwTQay8qMMsT4k-14" value="" style="shape=image;html=1;verticalAlign=middle;verticalLabelPosition=bottom;labelBackgroundColor=#ffffff;imageAspect=0;aspect=fixed;image=https://icons.diagrams.net/icon-cache1/Ionicons_Fill_Vol_2-2187/logo-docker-1464.svg;fillColor=#3333FF;rounded=0;shadow=0;glass=0;strokeColor=light-dark(#000000,#A8A8FF);strokeWidth=3;align=center;fontFamily=Helvetica;fontSize=12;fontColor=default;" vertex="1" parent="O3-pwxNwTQay8qMMsT4k-7">
          <mxGeometry x="34.25" y="32.629999999999995" width="24.42" height="24.42" as="geometry" />
        </mxCell>
        <mxCell id="O3-pwxNwTQay8qMMsT4k-12" value="docker-compose" style="text;html=1;align=center;verticalAlign=middle;whiteSpace=wrap;rounded=0;fontFamily=Verdana;fontSize=14;" vertex="1" parent="O3-pwxNwTQay8qMMsT4k-17">
          <mxGeometry y="100" width="120" height="18.95" as="geometry" />
        </mxCell>
      </root>
    </mxGraphModel>
  </diagram>
</mxfile>
